<?xml version="1.0" encoding="UTF-8"?>
<svg id="a" data-name="Layer 1 copy" xmlns="http://www.w3.org/2000/svg" width="3001" height="3001" viewBox="0 0 300.1 300.1">
  <path d="M121.817,142.559l29.73-.005-.958,4.471h10.231c1.604-.019,3.18-.141,4.756-.394,1.144-.184,2.224-.485,3.312-.875l9.701-3.48,2.497,3.397c.425.48.939.815,1.534,1.039.564.212,1.127.297,1.74.315h5.027s.062-.292.062-.292c.177.531.352,1.063.522,1.603.745,2.348,1.206,4.704,1.461,7.149.047.447.154.915.386,1.276.234.364.667.342,1.037.196.262-.104.535-.456.497-.829l-.224-2.203-.213-1.417c-.546-3.638-1.366-7.023-2.511-10.271l.032-.151h-.084c-1.326-3.721-3.091-7.262-5.452-10.765-1.035-1.536-3.498-4.689-5.117-3.581-.371.254-.568.776-.508,1.273.059.488.319.841.612,1.219l3.758,4.844c1.459,1.881,2.654,3.869,3.642,6.045.146.321.277.644.414.965h-5.241c-.908-.083-1.685-.529-2.245-1.24l-2.013-2.852-5.2,1.833-3.232,1.076c-1.131.377-2.263.63-3.438.837-1.221.215-2.43.326-3.677.341h-5.801c.37-.339.597-.783.592-1.332l-.027-3.328c-.006-.73-.777-1.554-1.584-1.554l-34.326-.004c-.859,0-1.47.717-1.67,1.426v3.911c.257.934,1.008,1.359,1.977,1.359Z"/>
  <path d="M121.505,154.9h13.395s0-6.718,0-6.718h-13.395c-.866.073-1.468.669-1.664,1.441v3.911c.251.735.82,1.288,1.665,1.365Z"/>
  <path d="M235.204,158.356c-.034-1.081-.572-2.194-1.556-2.977-1.659-1.319-3.947-1.203-5.112.261-.31.39-.507.836-.602,1.306.187-.225.419-.397.659-.522.287-.153.594-.24.901-.293.305-.05.602-.06.897-.042.587.033,1.152.178,1.687.407.53.236,1.035.553,1.46.982,0,0,.158.151.285.313.095.123.186.249.272.379.037.058.061.128.096.187h-2.14c-.205-.134-.418-.259-.644-.367-.382-.175-.787-.32-1.195-.402-.659-.133-.982-.072-1.16-.038-.175.04-.332.1-.458.188-.126.087-.225.208-.292.387-.024.067-.041.146-.053.233h-49.24c-.898-.073-1.743-.497-2.262-1.229l-2.026-2.858-5.383,1.896-3.115,1.034c-1.064.353-2.127.589-3.231.792-1.423.262-2.842.365-4.296.365l-10.527-.005-.464,2.166h-5.33s0,6.706,0,6.706h13.168c.979.046,1.882-.656,1.887-1.684l.01-2.246c1.589-.005,3.153-.147,4.713-.4,1.093-.177,2.128-.46,3.167-.833l9.786-3.512,2.372,3.23c.418.569.991.948,1.649,1.208.558.196,1.142.316,1.753.316h45.626s10.781,0,10.781,0l.586-2.708.458-2.145c.014-.041,0-.081-.047-.094h-3.083Z"/>
  <path d="M147.956,154.9h.97l-.056.262h10.178c1.635-.017,3.242-.139,4.848-.402,1.11-.182,2.159-.469,3.214-.848l9.762-3.501,2.391,3.259c.413.551.979.923,1.617,1.174.576.216,1.147.306,1.773.323h5.017s1.054-4.946,1.054-4.946h-7.973c-.911-.078-1.687-.527-2.252-1.234l-2.015-2.859-5.588,1.97-2.471.826c-2.324.777-5.015,1.274-7.476,1.294h-3.518s0-.365,0-.365c-.002-.912-.76-1.585-1.656-1.671h-13.397s0,6.718,0,6.718h.729l-1.631,1.145c-4.267,2.712-9.013,4.675-14.149,4.461-.804-.034-1.541-.163-2.3-.419-.947-.32-1.824-.708-2.732-1.131l-3.078-1.434c-1.069-.498-2.269-.82-3.438-.716-1.047.093-1.938.617-2.706,1.292-1.016.892-2.361,1.948-3.616,2.323-.845.253-1.602-.028-2.259-.526,1.374-3.254,2.104-6.91,2.083-10.337-.023-3.542-.957-7.581-3.329-10.242-1.802-2.022-4.39-3.058-7.1-2.776-2.079.216-3.983,1.044-5.651,2.291-.864.646-1.572,1.34-2.389,2.089l-.853-.81c-.816-.775-1.589-1.541-2.513-2.194-2.873-2.029-5.844-2.42-9.242-1.563-5.139,1.296-8.656,5.08-10.267,10.039-1.033,3.179-1.236,6.535-.628,9.822.353,1.907.89,3.743,1.703,5.472-.419-.031-.852,0-1.299.112l.089-.826c.129-1.205-.43-2.289-1.424-2.935-1.034-.672-2.294-.746-3.381-.136-.956.526-1.624,1.494-1.623,2.625l.008,7.618,7.495-.005c.909,0,1.694-.446,2.276-1.094.312-.35.524-.745.663-1.169,2.254,2.399,5.265,3.939,8.7,3.812,4.591-.171,8.257-3.954,7.612-8.651-.171-1.245-.553-2.395-1.248-3.427-1.451-2.154-3.901-2.988-6.465-2.233-.61-2.985,1.331-5.684,4.441-6.031,1.318-.147,2.026.869,2.423,2.074.663,2.016,1.669,5.652,3.375,6.649,1.376.804,2.399-.243,3.137-1.506.604-1.036,1.063-2.105,1.549-3.203.302-.681.825-1.953,1.243-2.012.677-.096,1.313,2.648,1.483,3.658l.938,5.582c.265,1.574.675,3.881,1.633,4.993.442.513,1.117.71,1.766.501,1.229-.396,2.365-1.765,3.091-2.904.343.241.697.421,1.045.47,1.161.163,2.293-.067,3.362-.528.89-.384,1.662-.896,2.459-1.442l1.929-1.318c.429-.293.925-.524,1.453-.566,1.084-.085,2.141.216,3.052.789l1.283.806c-.104.173-.186.364-.236.569v3.836c.188.76.755,1.323,1.602,1.428h13.457s0-4.437,0-4.437c2.606-.752,5.105-1.915,7.444-3.413,2.025-1.298,3.891-2.81,5.613-4.472ZM84.632,147.932c-4.042.488-6.445,4.023-5.512,8.008-.625.451-1.134,1.01-1.466,1.739,1.07-.656,2.338-.753,3.447-.238.408.189.695.53.87.947.236.563-.061,1.302-.677,1.451-.389.094-.76.141-1.057.415-.22.337-.196.758.01,1.114.333.576.909.907,1.593,1.056-.881.517-1.941.535-2.767-.066l-.653-.476c-.308-.224-.587-.497-.976-.565-.748-.13-1.239.837-1.256,1.744-1.139-1.112-1.848-2.511-1.959-4.105-.06-.854.039-1.635.107-2.449l.119-1.438c.019-.223-.111-.514-.286-.648-.549-.421-1.67.069-2.378.608.387-2.661,1.373-4.527,3.535-6.194.398-.307.786-.593,1.116-.968.322-.367.361-.931.01-1.29-.619-.63-1.786-.641-2.678-.568,1.478-1.317,3.362-1.843,5.284-1.558l1.367.203c.421.062.812-.02,1.153-.267.313-.227.497-.59.371-.979l-.482-1.498c2.456,1.353,4.162,3.907,5.239,6.453-.685-.362-1.336-.52-2.075-.431ZM90.635,156.086c-.239-.382-.45-.732-.591-1.135l-1.138-3.246c-.598-1.706-1.179-3.359-2-4.968-1.545-3.027-3.812-5.548-7.277-6.319.567.858,1.081,1.672,1.381,2.631l.11.673c-.378.13-.71.086-1.095.02-1.151-.198-2.286-.27-3.434-.046-2.171.424-3.758,1.719-4.948,3.599,1.069-.368,2.115-.565,3.199-.482.381.029.689.1,1.049.333-.18.28-.304.409-.505.563-.835.641-1.636,1.281-2.308,2.094-1.724,2.086-2.304,4.595-2.162,7.294.642-.913,1.38-1.598,2.36-1.977.078-.009.275-.037.292.026l.062.237c-.143.988-.259,1.933-.264,2.933.023,2.954,1.398,5.106,3.96,6.557-.238-.893-.5-2.088.006-2.752l1.3.919c.633.447,1.431.621,2.209.546,1.166-.113,2.28-1.017,2.969-1.99-.744.15-1.339.26-1.985.049-.408-.133-.784-.37-.887-.823.504-.112.994-.233,1.344-.571.667-.645.776-1.561.399-2.399-.322-.716-.966-1.131-1.69-1.414l1.344-.073c2.537.135,3.981,2.294,4.366,4.701.589,3.677-2.128,6.76-5.712,7.136-3.606.378-6.786-1.489-8.95-4.279-1.679-2.164-2.629-4.712-3.207-7.396-.744-3.457-.531-7.003.684-10.315,1.692-4.612,5.229-7.861,10.143-8.702,2.364-.405,4.689.035,6.687,1.393,1.073.73,1.992,1.617,2.915,2.539.705.705,1.562,1.383,2.378.65l1.875-1.683c1.32-1.185,2.895-1.937,4.624-2.308,2.417-.518,4.798.16,6.505,1.944,2.548,2.663,3.352,7.063,3.186,10.702-.126,2.774-.723,5.483-1.729,8.047-.387-.46-.749-.931-1.091-1.438l-1.469-2.171.407-1.221c.731-2.193,1.577-5.648.932-7.887-.516,1.231-1.257,2.49-2.514,3.013-.026-.35-.01-.684.052-1.029.497-2.737.314-5.298-2.02-7.095l-1.254-.795c.38,1.052.738,2.339.093,3.359l-1.271-.746c-2.652-1.557-5.798.125-6.837,2.916.957-.407,1.902-.649,2.88-.552.234.023.414.138.516.343l-.45.938c-.428.723-.858,1.406-1.21,2.177-1.036,2.267-2.201,5.047-2.229,7.479ZM100.3,159.574l-.725-4.434c-.184-1.124-.449-2.194-.848-3.25-.225-.595-.524-1.141-.981-1.54-.77-.672-1.851-.614-2.452.197l-.48.649c-.531.924-.926,1.871-1.361,2.843-.384.859-.791,1.659-1.281,2.455-.099.162-.293.308-.482.307-.458-1.036-.026-2.709.361-3.844.479-1.403,1.014-2.742,1.629-4.093.293-.643.689-1.196,1.012-1.819l.562-1.084c.263-.68-.083-1.352-.766-1.544-.538-.152-1.067-.126-1.645-.059,1.244-1.233,3.193-1.748,4.656-.861l1.076.653c.518.314,1.105.222,1.452-.29.337-.498.376-1.101.378-1.765,1.624,1.764,1.578,3.482,1.194,5.701-.13.752-.287,1.814.242,2.091.69.36,1.758-.48,2.434-1.188-.144,1.326-.385,2.554-.76,3.783l-.553,1.813-3.43-5.494c-.443-.118-.903.157-1.002.634-.172.821.094,1.806.415,2.613.742,1.871,1.681,4.029,2.742,6.01l-.315.919-.721,2.39-.352-1.793ZM103.374,163.662c-.431.519-1.287,1.239-1.698,1.02-.512-.273-.549-1.088-.455-1.763.142-1.023.399-1.976.729-2.964l.298-.895c.465.805.948,1.568,1.447,2.246.204.277.456.592.733.9-.32.503-.667.987-1.054,1.455Z"/>
  <path d="M117.103,152.199c.44-.828.287-1.799-.41-2.422-1.618-1.445-4.776-.751-5.608,1.167-.365.842-.133,1.755.572,2.331,1.588,1.297,4.499.708,5.447-1.076Z"/>
  <path d="M276.805,165.321c-.169-1.663-1.323-3.043-2.925-3.514-2.351-.69-4.822.52-5.449,2.902-.573,2.173.4,4.456,2.537,5.253,1.098.41,2.282.385,3.361-.067,1.505-.631,2.432-2.063,2.509-3.644l.002-.594-.034-.337Z"/>
  <path d="M268.624,153.949c-.838-5.017-4.283-9.145-9.058-10.898-3.351-1.23-7.1-1.265-10.477-.116-2.456.835-4.581,2.294-6.212,4.175-.089-.004-.181,0-.268-.009.034.041.064.085.101.124h0c.011.011.024.021.035.032-.292.346-.562.71-.82,1.083-.063-.069-.133-.123-.195-.199-.049-.058-.341-.414-.59-.97,0,0-.174-.391-.23-.646-.065-.292-.11-.589-.136-.888-.117-1.408.344-6.333.276-7.553-.079-1.441-.342-3.087-.911-4.066-1.099-1.891-2.637-2.709-4.827-3.202-2.417-.545-5.015-.347-7.442.037-2.56.406-5.146,1.052-7.504,2.144-1.167.54-2.355,1.225-3.1,2.306-.077.111-.14.226-.191.341.667-.241,1.342-.458,2.025-.654,1.097-.312,2.214-.567,3.353-.743,1.139-.175,2.299-.274,3.479-.244,1.178.031,2.382.192,3.562.604.323.116.638.25.946.402.312.159.613.339.9.539.578.408,1.104.917,1.522,1.503.424.584.736,1.239.954,1.906.212.67.336,1.352.389,2.026l.028.5.012.467.017.93c.006.618-.062,1.801-.062,1.801,0,0-.163,2.096-.223,3.746,0,0-.064,1.553-.002,2.304.212,2.57,2.168,4.007,4.49,4.693.309.091.63.162.956.226-.091,1.475.025,2.956.372,4.408.98,4.107,3.687,7.372,7.234,9.213-.005.03-.006.061-.011.091-.167,1.07-.076,3.008,1.737,3.232.854.106,1.683-.646,2.458-1.91.556.098,1.119.176,1.693.209l.616.036,1.098-.002.596-.034c2.209-.125,4.353-.761,6.282-1.83,5.434-3.01,8.146-9.022,7.128-15.115ZM254.689,164.164c-.314.02-.621.017-.922,0,.277-1.177.737-3.438.56-4.822h0c-.03-.238-.069-.498-.12-.733-.096-.471-.217-.916-.362-1.373-.143-.458-.304-.91-.498-1.347,0,0-.26-.624-.646-1.274-.243-.407-.508-.799-.796-1.176-.287-.377-.61-.72-.947-1.049,0,0-.566-.534-1.092-.895-.27-.193-.571-.353-.88-.494.432-.469.928-.872,1.485-1.199.125.066.245.121.377.203.813.511,1.357,1.008,1.357,1.008.422.373,1.068.978,1.719,1.854.876,1.178,1.306,2.146,1.306,2.146.213.427.398.865.567,1.309.263-1.423.473-2.906.297-4.31-.141-1.121-.569-2.208-1.271-3.096,3.81.406,6.413,3.722,6.4,7.681-.013,3.969-2.44,7.302-6.534,7.565Z"/>
  <path d="M61.032,160.386c1.939-3.573,2.836-7.757,2.281-12.107-2.891-2.743-7.252-3.263-10.543-.982,1.078,3.123,1.353,6.721-.39,9.544-2.672,4.33-8.028,6.241-12.827,4.578-4.756-1.648-7.697-6.41-7.127-11.446.592-5.23,4.434-9.198,9.339-10.738,3.324-1.044,6.865-1.102,10.211-.094,4.482,1.35,9.055,4.647,11.325,8.967-1.535-11.081-11.708-18.708-22.647-17.212-10.997,1.504-18.687,11.616-17.21,22.602,1.478,10.997,11.575,18.705,22.574,17.256,5.747-.757,10.612-3.911,13.741-8.326-.011.108-.039.211-.038.322v7.014s7.035,0,7.035,0c.964-.04,1.833-.52,2.328-1.317h-8.049s0-8.061,0-8.061Z"/>
  <path d="M231.844,139.561c-.143-.494-.345-.96-.62-1.375-.272-.417-.616-.784-1.018-1.099-.203-.156-.418-.3-.645-.431-.23-.128-.469-.246-.718-.351-.92-.381-1.951-.594-3.007-.693-1.058-.1-2.144-.089-3.229-.01-1.087.08-2.177.231-3.261.433-.813.153-1.622.335-2.422.547.053.418.267.816.637,1.141.877.77,2.131.934,3.253.964,1.198.032,2.391-.069,3.588.024,1.196.094,2.391.244,3.555.533,1.535.381,3.026,1.048,4.142,2.118l-.008-.234h0c-.028-.542-.11-1.067-.248-1.565Z"/>
  <path d="M209.478,147.572l-.122-.076-1.732-.036c-.75-.007-1.468-.019-2.232.046-.17.015-.346.1-.445.211-.739.822-1.418,1.65-2.05,2.559-.738,1.062-1.315,2.171-1.723,3.4-.345,1.04-.604,2.073-.781,3.156-.023.139.064.251.201.274.377.064.752.086,1.147.084l3.017-.011.72-.097c.308-.042.348-.272.381-.529.155-1.224.454-2.395.795-3.576.207-.718.472-1.362.813-2.025.583-1.132,1.254-2.178,1.994-3.213.025-.035.051-.147.019-.167Z"/>
  <path d="M210.212,157.191h3.138c.495-.001.799-.062.83-.477.194-2.636.573-4.813,1.536-7.293l.667-1.719c.013-.034.019-.135-.013-.151l-.125-.064c-1.123-.031-2.218-.043-3.343-.017-.144.036-.402.015-.496.163-.433.683-.79,1.346-1.146,2.053-.65,1.288-1.125,2.604-1.437,4.015-.231,1.047-.396,2.065-.516,3.131-.039.344.411.358.906.358Z"/>
  <path d="M207.555,145.593c-.039.024-.071.098-.075.123-.004.025.065.07.093.072l1.044.074,1.992-.002c.199,0,.501.02.657-.097l.891-.667c1.31-1.063,2.746-1.897,4.316-2.525,1.09-.436,2.151-.818,3.288-1.13,1.458-.356,2.9-.647,4.428-.71-1.772.298-3.509.685-5.168,1.411-1.633.688-3.065,1.678-4.352,2.881l-.582.544c-.041.038-.085.192-.026.21.119.036.307.082.442.082l2.708.002c.137,0,.288-.085.368-.188l.715-.919c.78-1.002,1.696-1.809,2.775-2.476,1.034-.64,2.103-1.136,3.296-1.395.512-.102.99-.224,1.548-.226-1.245.314-2.369.848-3.332,1.708-.741.662-1.355,1.418-1.849,2.28l-.565.987c-.058.101.126.225.235.225l2.493.006c.269,0,.428-.172.501-.414.442-1.456.928-2.785,1.932-3.955.471-.549,1.095-.872,1.786-.954l-1.382.009-1.699.087c-3.828.288-7.764.903-11.366,2.271-1.514.575-2.918,1.297-4.281,2.16l-.831.526Z"/>
  <path d="M219.644,147.499c-.192.009-.334.102-.396.302-1.02,3.275-1.361,5.632-1.566,9.031-.009.147.092.274.23.291.431.052.847.071,1.289.069l2.336-.01c.258,0,.451-.155.452-.416.01-1.364.032-2.701.211-4.067l.649-4.928c.009-.066-.007-.173-.038-.21s-.133-.082-.191-.083c-1.001-.027-1.979-.026-2.976.021Z"/>
  <path d="M197.439,157.052c.369-.014.723-.296.794-.746l.233-1.478c.265-2.183.708-4.295,1.363-6.397.701-2.246,1.457-4.39,2.362-6.547,1.224-2.916,2.929-5.45,4.858-7.928l2.375-3.05.517-.638c.47-.581.821-1.349.466-2.066-.348-.703-1.119-.867-1.808-.549-.657.303-1.241.743-1.762,1.287-2.021,2.109-3.746,5.192-5.095,7.836-.572,1.122-1.097,2.203-1.563,3.382-1.041,2.631-1.853,5.277-2.465,8.043-.503,2.273-.836,4.479-1.163,6.766-.068.477-.093.976-.02,1.432.073.452.516.669.905.654Z"/>
  <path d="M194.691,141.702c.761-.029,1.166-1.184,1.28-2.074l.172-1.335c.061-1.057.067-2.102-.005-3.147-.096-1.383-.66-3.496-1.978-3.546-1.091-.041-1.623,1.311-1.73,2.492-.176,1.932.068,3.847.684,5.686.278.829.853,1.952,1.578,1.925Z"/>
</svg>