<?xml version="1.0" encoding="UTF-8"?>
<svg id="a" data-name="Layer 1 copy" xmlns="http://www.w3.org/2000/svg" width="3001" height="3001" viewBox="0 0 300.1 300.1">
  <path d="M182.271,181.418h-4.148c-.219,0-.373.049-.461.145-.088.097-.133.255-.133.474v5.034c0,.22.045.377.133.475.088.097.242.145.461.145h4.148c.21,0,.363-.048.455-.145.093-.097.14-.255.14-.475v-5.034c0-.219-.046-.377-.14-.474-.092-.096-.245-.145-.455-.145Z"/>
  <path d="M170.521,181.418h-4.578v2.795h4.427c.185,0,.333-.015.442-.044.11-.029.189-.091.24-.184.05-.093.076-.224.076-.392v-1.557c0-.219-.046-.377-.14-.474-.092-.096-.249-.145-.468-.145Z"/>
  <path d="M222.253,92.647c-7.241,0-13.779,3.052-18.41,7.93l-57.123-17.929c-1.282-.402-2.613-.606-3.957-.606s-2.675.204-3.957.606l-77.101,24.201c-5.536,1.738-9.255,6.804-9.255,12.605v59.829c0,5.662,3.603,10.69,8.964,12.511l75.289,25.562c1.371.465,2.8.701,4.248.701,1.388,0,2.762-.217,4.082-.646l78.915-25.637c5.461-1.774,9.13-6.824,9.13-12.566v-38.198c8.603-4.072,14.57-12.834,14.57-22.967,0-14.003-11.393-25.396-25.396-25.396ZM138.563,211.881l-75.288-25.562,75.289,25.562c.014.005.029.006.044.011-.015-.005-.03-.006-.044-.011ZM102.796,187.546c.089.097.242.145.462.145h4.679v-2.542h-3.313v-1.303h4.655v5.135h-6.236c-.641,0-1.099-.147-1.372-.443-.274-.295-.411-.763-.411-1.403v-5.161c0-.649.137-1.12.411-1.411.273-.291.731-.436,1.372-.436h6.299v1.29h-6.083c-.22,0-.374.049-.462.145-.088.097-.132.255-.132.474v5.034c0,.22.044.377.132.475ZM112.314,188.135c0-.169.042-.323.127-.462.083-.139.193-.246.328-.322.135-.077.287-.114.456-.114.261,0,.478.086.651.259s.259.386.259.639c0,.168-.042.32-.125.455-.084.134-.192.245-.323.329-.131.083-.285.126-.461.126-.169,0-.321-.042-.456-.126-.135-.084-.245-.195-.328-.329-.084-.135-.127-.287-.127-.455ZM126.379,181.899l-2.997,7.083c-.009,0-.011,0-.006,0,.004,0-.002,0-.019,0h-1.392l-3.074-7.083h-.151v7.07l-.013.013h-1.391l-.013-.013v-8.829l.013-.012h2.327l3.011,7.07,2.947-7.07h2.34v8.854h-1.404l-.012-.013v-7.07h-.165ZM131.678,188.982v-8.854h1.417v8.854h-1.417ZM140.952,212.275c-.008,0-.017-.002-.025-.002.266,0,.53-.031.795-.059-.257.027-.513.061-.771.061ZM144.934,180.14v8.842h-1.493l-5.211-6.742v6.729l-.013.013h-1.392l-.013-.013v-8.829l.013-.012h1.493l5.211,6.805v-6.805h1.404v.012ZM155.887,187.704v1.277h-7.235v-8.854h7.222v1.29h-5.793v2.491h5.591v1.29h-5.591v2.492h5.806v.013ZM160.807,180.14v8.842h-1.417v-8.854h1.417v.012ZM172.545,183.302c0,.548-.146.943-.437,1.184-.291.24-.731.36-1.321.36v.026c.59,0,1.03.118,1.321.354s.437.641.437,1.215v2.542h-1.417v-2.796c0-.261-.057-.44-.171-.537-.114-.097-.31-.146-.588-.146h-4.427v3.479h-1.417v-8.854h6.223c.649,0,1.111.145,1.385.436.274.291.411.761.411,1.411v1.328ZM177.907,188.982c-.641,0-1.1-.147-1.378-.443-.278-.295-.417-.763-.417-1.403v-5.161c0-.649.139-1.12.417-1.411.278-.291.738-.436,1.378-.436h4.579c.641,0,1.098.145,1.372.436.274.291.411.761.411,1.411v5.161c0,.641-.139,1.108-.417,1.403-.278.296-.738.443-1.378.443h-4.566ZM222.162,186.275l-39.458,12.818,39.457-12.818c.861-.28,1.644-.706,2.325-1.247-.681.541-1.464.967-2.324,1.247ZM227.296,168.819H58.234v-49.364c0-2.434,1.186-4.657,3.085-6.027.633-.457,1.345-.818,2.12-1.062l45.727-14.353,31.374-9.848c.278-.087.562-.143.847-.196.456-.086.916-.145,1.378-.145.75,0,1.5.114,2.225.341l55.201,17.326c-2.116,3.706-3.333,7.988-3.333,12.552,0,14.003,11.393,25.396,25.396,25.396,1.727,0,3.413-.175,5.043-.505v25.884ZM222.253,137.657c-10.832,0-19.613-8.781-19.613-19.613s8.781-19.613,19.613-19.613,19.613,8.781,19.613,19.613-8.781,19.613-19.613,19.613Z"/>
  <polygon points="128.635 156.628 128.477 156.628 118.82 112.975 101.011 112.975 101.011 168.779 112.409 168.779 112.409 145.309 112.053 125.086 112.211 125.086 122.343 168.779 134.73 168.779 144.862 125.086 144.981 125.086 144.704 145.309 144.704 168.779 156.141 168.779 156.141 112.975 138.292 112.975 128.635 156.628"/>
  <path d="M177.633,115.35h-11.636v12.189h-5.264v8.668h5.264v20.856c0,2.296.165,4.196.495,5.699.33,1.504.956,2.705,1.88,3.601.924.897,2.21,1.525,3.858,1.881,1.65.356,3.766.534,6.353.534h5.857v-8.786h-2.295c-1.004,0-1.801-.06-2.396-.178-.593-.119-1.042-.323-1.345-.614-.303-.29-.508-.718-.613-1.286-.105-.566-.158-1.272-.158-2.117v-19.59h6.886v-8.668h-6.886v-12.189Z"/>
  <path d="M221.682,120.687h6.545c0,.49-.065.946-.196,1.371-.13.424-.315.807-.555,1.151-.24.343-.53.647-.873.913-.343.267-.724.493-1.143.677-.418.186-.875.325-1.371.417-.495.092-1.014.139-1.559.139-.664,0-1.284-.074-1.861-.221-.576-.146-1.104-.359-1.583-.637-.479-.277-.904-.623-1.273-1.036s-.68-.889-.93-1.428c-.25-.539-.443-1.143-.58-1.812-.136-.669-.204-1.396-.204-2.179v-.033c0-.762.068-1.466.204-2.114.136-.647.329-1.237.58-1.771.25-.532.56-1.001.93-1.403s.794-.743,1.273-1.02c.478-.277,1.003-.484,1.575-.62s1.189-.204,1.853-.204c.63,0,1.227.063,1.787.188.561.126,1.07.313,1.526.563.457.25.856.565,1.199.947.343.381.618.827.825,1.338h6.104c-.305-1.262-.797-2.383-1.477-3.362-.681-.979-1.521-1.806-2.521-2.48-1.001-.674-2.144-1.188-3.427-1.542-1.284-.354-2.683-.531-4.195-.531-1.904,0-3.621.28-5.149.841-1.528.56-2.837,1.36-3.925,2.399-1.088,1.039-1.929,2.3-2.521,3.786-.593,1.485-.889,3.146-.889,4.986v.033c0,1.251.133,2.418.4,3.501.266,1.082.65,2.069,1.151,2.962.5.892,1.109,1.684,1.828,2.375.718.691,1.525,1.275,2.423,1.754.897.479,1.879.841,2.945,1.085,1.066.245,2.198.367,3.395.367.925,0,1.782-.087,2.571-.261s1.503-.414,2.146-.718c.642-.305,1.21-.658,1.705-1.061.495-.402.901-.837,1.216-1.306l.098,2.823h4.276v-13.251h-12.322v4.374Z"/>
</svg>